<?xml version="1.0" standalone="no"?>
<!DOCTYPE svg PUBLIC "-//W3C//DTD SVG 20010904//EN"
 "http://www.w3.org/TR/2001/REC-SVG-20010904/DTD/svg10.dtd">
<svg version="1.0" xmlns="http://www.w3.org/2000/svg"
 width="31.88" height="32" viewBox="0 0 300.000000 307.000000"
 preserveAspectRatio="xMidYMid meet">
<metadata>
Created by potrace 1.10, written by Peter Selinger 2001-2011
</metadata>
<g transform="translate(0.000000,307.000000) scale(0.100000,-0.100000)"
fill="#000000" stroke="none">
<path d="M2075 2975 c-316 -69 -552 -328 -598 -657 l-6 -38 65 0 c63 0 64 0
64 28 0 43 36 156 69 219 139 261 436 395 715 323 117 -30 209 -83 297 -170
208 -207 248 -528 97 -776 -136 -225 -397 -346 -651 -301 -86 15 -203 61 -240
95 -18 16 -21 15 -58 -28 -21 -25 -39 -48 -39 -52 0 -11 93 -64 165 -93 252
-100 547 -54 758 121 120 98 214 245 254 394 25 93 24 302 -1 390 -20 69 -73
184 -109 234 -34 49 -128 145 -177 181 -165 121 -407 173 -605 130z m360 -56
c313 -97 515 -366 515 -684 0 -114 -21 -210 -64 -302 -44 -91 -73 -134 -138
-202 -215 -222 -562 -280 -838 -141 -43 21 -58 34 -54 45 8 20 11 20 95 -19
369 -171 789 17 926 413 23 67 27 92 27 201 -1 108 -4 136 -27 205 -62 188
-187 329 -365 412 -280 130 -607 52 -805 -192 -56 -69 -109 -174 -131 -259
-17 -67 -32 -89 -46 -66 -11 18 -4 56 27 145 82 233 284 408 533 461 91 19
255 11 345 -17z"/>
<path d="M2093 2765 c-63 -17 -131 -51 -195 -97 l-47 -34 166 -148 166 -149
-6 64 c-4 35 -10 135 -13 222 -4 86 -10 157 -13 156 -3 0 -30 -7 -58 -14z m21
-53 c11 -18 19 -265 8 -261 -23 9 -202 173 -199 183 4 14 146 86 169 86 9 0
19 -4 22 -8z"/>
<path d="M2251 2693 c4 -49 10 -147 14 -220 l7 -131 31 36 c18 21 83 95 146
165 106 120 112 129 95 142 -57 44 -201 95 -269 95 l-31 0 7 -87z m202 -4 c20
-11 37 -24 37 -29 0 -10 -151 -184 -170 -195 -13 -8 -18 21 -25 143 -8 130 -4
137 68 115 29 -8 69 -24 90 -34z"/>
<path d="M2620 2603 c0 -5 -37 -48 -81 -98 -45 -49 -109 -121 -142 -158 l-61
-69 45 6 c24 3 123 11 219 16 96 6 176 12 177 14 7 7 -41 145 -65 186 -44 77
-91 130 -92 103z m39 -92 c26 -37 61 -117 61 -141 0 -15 -10 -20 -42 -24 -72
-9 -219 -13 -223 -6 -5 8 163 200 175 200 5 0 18 -13 29 -29z"/>
<path d="M1747 2483 c-21 -43 -44 -106 -51 -140 l-14 -63 215 0 215 0 -44 38
c-25 20 -97 83 -160 140 -64 56 -118 102 -120 102 -2 0 -21 -35 -41 -77z m151
-69 c45 -42 82 -80 82 -85 0 -5 -55 -9 -121 -9 l-122 0 6 40 c6 48 44 130 60
130 7 0 49 -34 95 -76z"/>
<path d="M32 2218 c-7 -7 -12 -22 -12 -34 0 -21 74 -111 758 -922 l272 -322 0
-353 0 -352 -203 -59 c-111 -32 -205 -64 -209 -70 -22 -34 7 -36 462 -36 391
0 449 2 460 15 8 10 9 19 4 25 -5 4 -98 34 -206 66 l-198 57 0 359 0 359 108
127 c394 462 922 1096 922 1107 0 8 -7 21 -16 29 -14 14 -125 16 -1073 16
-809 0 -1060 -3 -1069 -12z m148 -38 c0 -5 -5 -10 -10 -10 -6 0 -15 -11 -22
-24 -9 -21 -6 -32 15 -68 14 -24 34 -52 46 -62 12 -11 21 -23 21 -28 0 -5 -14
8 -32 29 -18 21 -54 61 -80 90 -64 70 -63 83 7 83 30 0 55 -4 55 -10z m1947
-6 c4 -12 -21 -42 -609 -740 -191 -227 -358 -429 -372 -449 l-26 -38 0 -357 0
-357 23 -21 c13 -12 68 -36 123 -54 l99 -32 -40 -7 c-51 -10 -385 -10 -445 0
l-45 7 105 33 c163 50 150 14 150 435 l0 353 -102 124 c-55 68 -140 171 -186
229 l-86 105 90 -93 c90 -93 135 -122 96 -61 -10 17 -182 224 -380 460 l-361
429 107 0 107 -1 215 -352 c276 -453 343 -556 348 -535 6 29 -26 85 -431 743
-47 78 -95 149 -106 159 -12 11 -21 23 -21 28 0 13 1743 5 1747 -8z m-1737
-380 c0 -3 -34 35 -75 84 -41 49 -75 93 -75 96 0 4 34 -34 75 -83 41 -50 75
-93 75 -97z m68 -71 c59 -74 49 -75 -11 -2 -27 33 -45 59 -40 58 4 0 27 -25
51 -56z"/>
<path d="M2645 2210 c-55 -4 -144 -8 -198 -9 -54 0 -97 -5 -95 -9 2 -5 71 -69
153 -142 83 -73 152 -137 153 -142 8 -19 22 -4 55 60 60 114 88 254 50 250
-10 -1 -63 -5 -118 -8z m83 -84 c-6 -51 -53 -159 -67 -154 -21 7 -191 163
-191 175 0 12 33 15 204 21 l59 2 -5 -44z"/>
<path d="M2285 2083 c5 -38 25 -338 25 -380 0 -22 0 -22 53 -7 76 22 153 59
200 96 23 17 44 33 46 35 3 2 -22 27 -55 56 -32 28 -105 94 -161 144 -56 51
-104 93 -107 93 -4 0 -4 -17 -1 -37z m159 -154 c50 -45 91 -88 91 -97 0 -17
-105 -76 -157 -88 -25 -5 -27 -3 -32 38 -13 107 -16 228 -5 228 6 0 52 -36
103 -81z"/>
<path d="M2174 2083 c-17 -27 -218 -266 -237 -282 -10 -7 -17 -17 -17 -21 0
-15 158 -80 222 -91 38 -7 69 -11 71 -8 6 7 -16 419 -22 419 -4 0 -11 -8 -17
-17z m-10 -164 c3 -34 6 -91 6 -125 0 -60 -1 -64 -22 -64 -33 1 -151 43 -155
56 -4 12 143 194 156 194 5 0 11 -28 15 -61z"/>
</g>
</svg>
