<?xml version="1.0" standalone="no"?>
<!DOCTYPE svg PUBLIC "-//W3C//DTD SVG 20010904//EN"
 "http://www.w3.org/TR/2001/REC-SVG-20010904/DTD/svg10.dtd">
<svg version="1.0" xmlns="http://www.w3.org/2000/svg"
 width="31.88" height="32" viewBox="0 0 300.000000 300.000000"
 preserveAspectRatio="xMidYMid meet">
<metadata>
Created by potrace 1.10, written by Peter Selinger 2001-2011
</metadata>
<g transform="translate(0.000000,300.000000) scale(0.100000,-0.100000)"
fill="#000000" stroke="none">
<path d="M1180 2943 c0 -38 11 -92 25 -125 5 -13 2 -18 -10 -18 -48 0 -269
-94 -350 -149 -28 -20 -45 -21 -265 -21 l-236 0 7 -69 c7 -86 37 -147 97 -203
l47 -43 -42 -64 c-23 -36 -59 -103 -79 -150 -36 -87 -84 -249 -84 -286 0 -19
-6 -20 -145 -17 l-145 4 0 -26 c0 -25 3 -26 51 -26 l50 0 -20 -26 c-12 -15
-21 -34 -21 -43 0 -9 -11 2 -25 24 l-24 40 -1 -40 c0 -111 113 -237 236 -263
l36 -7 28 -110 c33 -130 57 -194 111 -292 l40 -73 -59 0 -58 0 7 -69 c10 -117
75 -213 177 -263 54 -26 173 -37 223 -19 27 9 36 7 72 -18 23 -16 65 -40 93
-55 l51 -27 -90 -200 -91 -201 -53 4 -53 5 0 -49 0 -48 820 0 820 0 0 48 0 49
-53 -5 -53 -4 -91 201 -90 200 51 27 c28 15 70 39 93 55 36 25 45 27 72 18 50
-18 169 -7 223 19 102 50 167 146 177 263 l7 69 -58 0 -59 0 40 72 c54 99 78
163 111 293 l28 110 36 7 c133 28 226 141 240 291 l7 69 -144 -4 -144 -3 -17
85 c-23 110 -84 266 -141 359 l-45 74 50 53 c62 65 81 108 89 197 l7 67 -236
0 c-220 0 -237 1 -265 21 -81 55 -302 149 -350 149 -12 0 -15 5 -10 18 14 33
25 87 25 125 l0 37 -320 0 -320 0 0 -37z m78 -43 c-20 -27 -23 -29 -29 -13
-10 27 0 43 27 43 l25 0 -23 -30z m512 5 c0 -14 -1 -25 -3 -25 -2 0 -14 11
-27 25 l-23 25 26 0 c22 0 27 -5 27 -25z m-55 -42 c-25 -103 -152 -177 -261
-153 -79 18 -153 84 -169 153 l-7 27 222 0 222 0 -7 -27z m-436 -77 l30 -45
-25 10 c-14 5 -36 9 -49 9 l-25 0 18 35 c9 19 18 35 19 35 1 0 15 -20 32 -44z
m477 -27 c-17 -4 -39 -10 -49 -14 -14 -6 -10 4 13 39 l32 47 18 -33 18 -33
-32 -6z m-357 -126 l56 -17 0 -368 c0 -289 -3 -368 -13 -368 -7 0 -33 -10 -58
-22 l-46 -21 -244 244 -244 244 39 40 c56 58 83 118 89 197 l5 67 51 22 c28
12 89 34 136 49 l85 27 44 -39 c28 -24 66 -45 100 -55z m547 26 l71 -30 5 -67
c6 -79 33 -139 89 -197 l39 -40 -244 -244 -244 -244 -46 21 c-25 12 -51 22
-58 22 -10 0 -13 79 -13 368 l0 368 56 17 c34 10 72 31 99 55 l44 39 66 -20
c36 -10 97 -32 136 -48z m-976 4 c0 -5 -7 -17 -15 -27 -8 -11 -15 -34 -15 -52
0 -58 -9 -67 -36 -34 -16 18 -36 30 -57 32 -31 3 -31 4 38 45 70 43 85 49 85
36z m558 -23 c-26 -36 -31 -37 -52 -6 l-16 25 43 4 c23 2 43 4 45 5 1 1 -7
-11 -20 -28z m579 -7 c67 -40 77 -53 40 -53 -13 0 -34 -11 -47 -25 -29 -31
-40 -24 -40 24 0 20 -7 46 -15 57 -34 45 -19 44 62 -3z m-1667 -50 c0 -5 -9
-19 -20 -33 -17 -22 -19 -23 -25 -7 -10 25 1 47 25 47 11 0 20 -3 20 -7z
m2166 -8 c4 -8 3 -23 -1 -32 -6 -16 -8 -15 -25 7 -11 14 -20 28 -20 33 0 14
41 7 46 -8z m-1716 -40 c0 -16 -42 -84 -66 -109 -103 -104 -276 -82 -351 44
-18 30 -33 58 -33 62 0 4 101 8 225 8 124 0 225 -2 225 -5z m1670 -3 c0 -4
-15 -32 -32 -62 -76 -126 -249 -148 -352 -44 -24 25 -66 93 -66 109 0 3 101 5
225 5 124 0 225 -4 225 -8z m-1730 -182 c-9 -17 -9 -29 -1 -46 13 -30 9 -30
-35 0 l-36 24 38 26 c43 29 51 28 34 -4z m1383 -3 l28 -19 -35 -24 c-43 -30
-50 -30 -35 -3 8 16 8 28 0 46 -18 40 -16 40 42 0z m-1654 -43 c-30 -32 -39
-30 -39 5 0 17 -4 33 -10 36 -5 3 -10 11 -10 16 0 5 18 0 41 -12 l41 -20 -23
-25z m1926 37 c-8 -17 -12 -37 -9 -45 9 -24 -9 -19 -35 8 l-23 24 38 21 c22
11 40 20 42 21 1 0 -4 -13 -13 -29z m-1459 -318 l253 -252 -19 -38 c-11 -21
-21 -46 -24 -55 -5 -17 -28 -18 -310 -18 l-304 0 9 38 c5 20 9 52 9 71 l0 33
-130 -3 c-150 -5 -141 -13 -109 101 30 109 65 194 121 290 l49 85 102 0 101 0
252 -252z m1452 167 c56 -96 91 -181 121 -290 32 -114 41 -106 -109 -101
l-130 3 0 -33 c0 -19 4 -51 9 -71 l9 -38 -304 0 c-282 0 -305 1 -310 18 -3 9
-13 34 -24 55 l-19 37 252 253 252 252 102 0 102 0 49 -85z m-954 -325 c9 -14
15 -25 14 -26 -16 -3 -78 -5 -78 -2 0 9 33 53 40 53 4 0 15 -11 24 -25z m-219
-45 c3 -5 19 -13 36 -17 l30 -8 -34 -33 c-34 -33 -34 -33 -30 -8 3 15 -2 37
-11 51 -9 14 -12 25 -7 25 5 0 13 -4 16 -10z m399 -15 c-9 -14 -14 -36 -12
-50 3 -14 5 -25 4 -25 -1 0 -19 17 -40 39 -34 34 -35 38 -14 34 13 -2 32 3 43
11 30 23 38 19 19 -9z m-1344 -53 c-11 -2 -31 -2 -46 0 l-26 3 23 29 23 29 23
-29 c22 -28 22 -29 3 -32z m2333 28 l27 -30 -51 0 -50 0 21 30 c12 17 23 30
24 30 1 0 15 -13 29 -30z m-1100 -13 c113 -63 116 -231 5 -304 -87 -58 -211
-26 -258 67 -41 80 -15 187 57 231 70 44 126 45 196 6z m-1003 -49 l0 -31 -25
23 c-14 13 -25 27 -25 32 0 4 11 8 25 8 21 0 25 -5 25 -32z m1870 25 c0 -4
-10 -17 -22 -30 l-22 -23 27 -56 27 -55 -29 16 c-17 8 -37 15 -46 15 -19 0
-19 9 0 34 8 11 15 39 15 63 0 39 2 43 25 43 14 0 25 -3 25 -7z m520 2 c0 -4
-7 -20 -16 -37 -15 -29 -17 -30 -27 -12 -5 10 -17 27 -25 37 -14 16 -12 17 26
17 23 0 42 -2 42 -5z m-2440 -48 c0 -19 -35 -75 -69 -110 -44 -46 -122 -73
-185 -63 -80 13 -147 67 -180 148 l-14 33 224 0 c123 0 224 -4 224 -8z m2354
-25 c-22 -54 -53 -90 -97 -116 -94 -56 -203 -40 -276 39 -36 39 -61 81 -61
103 0 4 101 7 224 7 l224 0 -14 -33z m-2274 -57 c0 -3 -7 -5 -15 -5 -9 0 -29
-7 -46 -15 l-30 -16 26 52 27 52 19 -32 c10 -17 19 -34 19 -36z m656 -43 c-7
-7 -46 28 -46 40 0 6 10 18 23 28 l22 18 3 -40 c2 -22 1 -43 -2 -46z m494 44
c0 -12 -30 -46 -42 -46 -4 0 -8 20 -8 45 l0 46 25 -18 c13 -10 25 -22 25 -27z
m-519 -105 l26 -59 -246 -246 -246 -246 -108 0 -107 0 -37 58 c-65 100 -153
333 -153 404 0 7 22 21 50 31 29 10 71 38 102 67 l53 49 320 1 320 0 26 -59z
m1216 9 c31 -28 75 -57 104 -67 27 -10 49 -24 49 -31 0 -71 -88 -304 -153
-404 l-37 -58 -107 0 -108 0 -246 246 -246 246 26 59 26 59 318 0 319 0 55
-50z m-1042 -116 c75 -31 153 -13 224 51 41 37 41 37 41 12 0 -14 4 -28 9 -31
5 -3 11 -15 14 -26 5 -18 4 -19 -16 -5 -12 8 -29 15 -39 15 -24 0 -52 -45 -45
-71 5 -20 4 -20 -22 5 -34 33 -44 33 -70 0 l-21 -27 -21 27 c-26 33 -36 33
-72 -1 -28 -27 -29 -27 -22 -5 8 28 -18 72 -43 72 -10 0 -28 -7 -40 -16 -26
-18 -28 -12 -6 21 9 14 14 36 12 50 -5 23 -2 22 39 -16 24 -22 60 -47 78 -55z
m-1055 69 c0 -9 -32 -43 -40 -43 -4 0 -15 11 -24 25 l-16 25 40 0 c22 0 40 -3
40 -7z m2324 -18 c-19 -30 -22 -30 -46 -8 -27 25 -22 33 22 33 l40 0 -16 -25z
m-1337 -77 c-11 -25 -351 -783 -353 -786 -1 -2 -121 64 -133 74 -2 2 14 23 36
48 45 51 73 126 73 197 l0 49 -34 0 c-34 0 -29 5 177 214 187 189 252 246 234
204z m518 -203 c210 -211 214 -215 180 -215 l-35 0 0 -49 c0 -71 28 -146 73
-197 22 -25 38 -46 36 -48 -12 -10 -132 -76 -133 -74 -2 3 -342 761 -353 786
-17 39 41 -11 232 -203z m-420 -195 l0 -370 -139 0 -139 0 5 -45 c3 -25 5 -45
4 -45 -12 0 -96 33 -96 38 0 3 72 167 160 364 89 197 167 373 176 393 8 19 18
35 22 35 4 0 7 -166 7 -370z m119 336 c8 -19 87 -195 175 -393 89 -197 161
-361 161 -365 0 -5 -84 -38 -96 -38 -1 0 1 20 4 45 l5 45 -139 0 -139 0 0 370
c0 204 3 370 7 370 4 0 14 -15 22 -34z m-677 -326 c-10 -26 -8 -32 16 -58 27
-28 35 -56 18 -66 -4 -3 -19 6 -31 19 -17 18 -34 25 -62 25 -21 0 -38 4 -38 9
0 8 97 101 105 101 2 0 -2 -13 -8 -30z m1271 -34 c17 -16 32 -34 32 -38 0 -4
-17 -8 -38 -8 -28 0 -45 -7 -62 -25 -12 -13 -27 -22 -31 -19 -17 10 -9 41 17
65 20 19 24 30 20 53 -5 26 -4 27 12 15 9 -7 32 -26 50 -43z m-1608 -40 c0 -3
-25 -6 -55 -6 -48 0 -60 -4 -80 -26 -21 -23 -26 -24 -31 -10 -11 27 4 46 35
46 32 0 61 30 61 62 0 13 9 8 35 -21 19 -21 35 -41 35 -45z m1972 24 c10 -11
29 -20 43 -20 28 0 41 -20 31 -46 -5 -14 -10 -13 -31 10 -20 22 -32 26 -80 26
-30 0 -55 3 -55 6 0 4 15 23 33 43 26 30 33 33 37 19 3 -10 13 -27 22 -38z
m-1642 -78 c0 -4 -15 -32 -32 -62 -101 -167 -353 -138 -412 48 l-7 22 225 0
c124 0 226 -4 226 -8z m1664 -14 c-43 -137 -196 -198 -325 -130 -42 21 -61 40
-86 82 -18 30 -33 58 -33 62 0 4 102 8 226 8 l225 0 -7 -22z m-1706 -152 c-9
-21 -9 -32 0 -47 19 -29 15 -30 -32 -7 l-44 21 42 32 c22 18 42 31 44 30 1 -1
-3 -15 -10 -29z m1338 -53 c-44 -23 -56 -22 -36 2 12 14 11 29 -5 68 -6 14 4
10 37 -15 l45 -33 -41 -22z m-656 -73 c-19 -12 -41 -12 -59 -1 -11 7 -10 13 5
34 l19 26 25 -25 c21 -21 23 -26 10 -34z m-475 12 c-3 -11 3 -30 16 -45 20
-27 20 -27 0 -27 -10 0 -33 -11 -49 -25 -28 -23 -30 -23 -25 -5 3 11 -2 31
-11 45 -20 31 -20 35 3 35 10 0 29 9 42 20 30 24 32 24 24 2z m956 -22 c23 0
23 -4 3 -35 -9 -14 -14 -34 -11 -45 5 -18 2 -18 -25 5 -17 15 -37 24 -44 21
-20 -8 -26 10 -9 24 8 7 15 26 15 42 l0 29 26 -20 c15 -12 35 -21 45 -21z
m-731 1 c0 -6 -4 -13 -10 -16 -23 -14 -28 -41 -15 -78 13 -38 7 -48 -14 -23
-7 8 -23 17 -36 20 -30 8 -31 17 -5 41 11 10 20 26 20 35 0 9 3 20 7 23 10 10
53 8 53 -2z m495 -13 c4 -13 17 -33 28 -46 18 -20 19 -24 7 -32 -8 -5 -20 -10
-26 -10 -6 0 -17 -7 -24 -15 -20 -24 -30 -18 -20 11 14 37 12 70 -5 84 -22 18
-18 30 9 30 17 0 27 -7 31 -22z m-55 -39 c0 -32 -59 -108 -107 -136 -103 -60
-239 -27 -304 75 -51 80 -58 77 191 77 192 0 220 -2 220 -16z m-584 -65 c62
-19 87 -33 100 -52 26 -40 74 -81 129 -110 43 -22 62 -26 135 -26 73 0 92 4
135 26 55 29 103 70 129 110 13 19 39 33 102 53 48 14 87 25 88 23 3 -4 147
-331 153 -345 4 -10 -121 -13 -607 -13 -369 0 -610 4 -608 9 11 32 154 350
157 351 1 0 41 -12 87 -26z m-265 -336 c30 -37 24 -48 -24 -48 -24 0 -47 3
-50 7 -6 6 40 63 51 63 2 0 12 -10 23 -22z m1312 -6 c33 -34 27 -42 -30 -42
-47 0 -52 9 -25 45 22 31 23 31 55 -3z"/>
<path d="M1435 1732 c-39 -24 -54 -43 -65 -83 -13 -45 3 -98 40 -134 27 -26
39 -30 90 -30 51 0 63 4 90 30 37 36 53 89 40 134 -24 86 -122 127 -195 83z
m100 -92 c27 -30 7 -70 -35 -70 -42 0 -62 40 -35 70 10 11 26 20 35 20 9 0 25
-9 35 -20z"/>
</g>
</svg>
