<?xml version="1.0" standalone="no"?>
<!DOCTYPE svg PUBLIC "-//W3C//DTD SVG 20010904//EN"
 "http://www.w3.org/TR/2001/REC-SVG-20010904/DTD/svg10.dtd">
<svg version="1.0" xmlns="http://www.w3.org/2000/svg"
width="31.88" height="32" viewBox="0 0 300.000000 307.000000"
 preserveAspectRatio="xMidYMid meet">
<metadata>
Created by potrace 1.10, written by Peter Selinger 2001-2011
</metadata>
<g transform="translate(0.000000,307.000000) scale(0.100000,-0.100000)"
fill="#000000" stroke="none">
<path d="M2647 2826 c-74 -27 -85 -47 -153 -278 l-49 -168 -377 0 -377 0 -28
-24 c-23 -20 -28 -31 -26 -68 2 -44 188 -1887 199 -1967 3 -27 15 -53 29 -67
l24 -24 306 0 c190 0 314 4 325 10 11 6 24 19 29 29 9 16 47 366 171 1591 22
217 40 412 40 433 0 27 -7 45 -25 62 -23 24 -31 25 -136 25 -85 0 -110 3 -106
13 2 6 24 75 47 152 23 77 49 157 57 178 24 60 48 67 233 67 l160 0 0 25 0 25
-152 0 c-102 -1 -166 -5 -191 -14z m-56 -485 c63 -4 102 -11 114 -21 20 -17
19 -37 -15 -360 -10 -102 -38 -365 -60 -585 -107 -1046 -109 -1068 -126 -1087
-16 -17 -38 -18 -304 -18 -220 0 -290 3 -304 13 -20 15 -12 -51 -111 917 -31
300 -67 655 -81 790 -31 303 -32 320 -8 337 14 10 95 13 378 13 217 0 367 4
376 10 8 5 22 7 30 3 8 -4 58 -9 111 -12z"/>
<path d="M906 1820 c-298 -47 -581 -203 -732 -403 -88 -117 -154 -285 -154
-391 l0 -41 841 3 842 2 -6 38 c-3 20 -20 179 -37 352 -17 173 -33 325 -35
336 -4 17 -22 27 -87 48 -151 48 -215 58 -398 61 -96 2 -201 0 -234 -5z m506
-64 c99 -23 160 -46 171 -63 3 -5 11 -61 17 -126 12 -115 12 -120 -9 -147 -27
-37 -27 -44 6 -68 24 -18 27 -28 39 -133 7 -63 13 -131 13 -151 l1 -38 -790 0
c-708 0 -791 2 -797 16 -7 18 22 129 50 194 51 115 166 252 283 336 132 94
339 174 527 203 112 18 368 6 489 -23z"/>
<path d="M976 1659 c-32 -46 21 -81 60 -38 14 15 16 24 8 37 -17 26 -50 26
-68 1z m54 -7 c0 -11 -41 -34 -48 -27 -4 4 2 13 12 21 22 15 36 18 36 6z"/>
<path d="M1411 1616 c-19 -20 -21 -28 -12 -45 16 -28 47 -26 67 4 16 24 16 27
-1 45 -23 25 -27 25 -54 -4z m33 -31 c-35 -26 -47 -15 -17 17 11 13 20 15 27
8 7 -7 4 -15 -10 -25z"/>
<path d="M687 1502 c-21 -23 -22 -46 -2 -62 12 -10 20 -9 40 4 27 18 32 45 13
64 -17 17 -32 15 -51 -6z m43 -15 c0 -14 -35 -39 -44 -30 -7 7 23 43 36 43 4
0 8 -6 8 -13z"/>
<path d="M1264 1426 c-13 -21 -14 -29 -4 -41 17 -21 44 -19 66 6 14 15 16 24
8 37 -18 28 -51 26 -70 -2z m54 -8 c-6 -17 -36 -34 -44 -25 -4 4 1 14 12 22
23 18 37 19 32 3z"/>
<path d="M870 1360 c-25 -25 -25 -32 -1 -54 15 -14 24 -15 39 -7 26 14 37 48
22 66 -17 20 -36 19 -60 -5z m50 -8 c0 -14 -36 -43 -43 -35 -4 3 0 15 10 25
17 19 33 24 33 10z"/>
<path d="M239 1269 c-23 -23 -22 -47 3 -63 14 -9 23 -6 45 16 26 27 26 28 8
48 -23 25 -30 25 -56 -1z m32 -32 c-11 -12 -24 -18 -27 -14 -10 10 27 48 38
41 6 -4 1 -16 -11 -27z"/>
<path d="M1286 1149 c-32 -46 21 -81 60 -38 14 15 16 24 8 37 -17 26 -50 26
-68 1z m52 -11 c-6 -17 -36 -34 -45 -24 -4 4 1 14 11 22 24 17 39 18 34 2z"/>
<path d="M824 1129 c-21 -24 -10 -52 24 -57 29 -4 60 42 42 63 -17 21 -44 19
-66 -6z m56 -7 c0 -10 -41 -35 -47 -28 -9 8 17 36 33 36 8 0 14 -3 14 -8z"/>
<path d="M70 932 c-16 -6 -12 -39 6 -46 9 -3 380 -6 825 -6 l810 0 -3 28 -3
27 -812 0 c-447 0 -817 -1 -823 -3z"/>
<path d="M32 828 c-15 -15 -15 -51 0 -66 9 -9 212 -12 853 -12 l840 0 -3 45
-4 45 -837 0 c-638 0 -840 -3 -849 -12z"/>
<path d="M20 592 c0 -164 38 -273 115 -334 l30 -23 812 -5 c447 -3 813 -1 813
3 0 5 -4 16 -9 25 -5 9 -14 69 -21 132 -7 63 -13 116 -14 118 -2 1 -25 -8 -52
-20 -38 -17 -68 -22 -134 -23 -104 0 -157 22 -270 112 -99 79 -132 95 -212
101 -94 7 -140 -8 -323 -99 -88 -43 -187 -86 -220 -94 -179 -45 -310 8 -379
154 l-30 61 -53 0 -53 0 0 -108z m124 -12 c70 -108 148 -150 276 -150 100 0
170 22 347 111 265 132 330 132 507 0 57 -43 123 -86 147 -95 60 -25 146 -31
220 -17 34 7 65 9 69 4 4 -4 11 -43 15 -85 l7 -78 -769 0 -768 0 -37 25 c-23
16 -46 45 -64 82 -24 50 -29 73 -32 166 -4 103 -3 107 16 107 15 0 34 -21 66
-70z"/>
</g>
</svg>
