<?xml version="1.0" standalone="no"?>
<!DOCTYPE svg PUBLIC "-//W3C//DTD SVG 20010904//EN"
 "http://www.w3.org/TR/2001/REC-SVG-20010904/DTD/svg10.dtd">
<svg version="1.0" xmlns="http://www.w3.org/2000/svg"
width="31.88" height="32"viewBox="0 0 300.000000 300.000000"
 preserveAspectRatio="xMidYMid meet">
<metadata>
Created by potrace 1.10, written by Peter Selinger 2001-2011
</metadata>
<g transform="translate(0.000000,300.000000) scale(0.100000,-0.100000)"
fill="#000000" stroke="none">
<path d="M0 2800 c0 -19 7 -20 234 -20 171 0 237 -3 242 -12 4 -6 27 -74 50
-151 26 -86 51 -148 65 -163 l22 -24 1013 0 c557 0 1015 -3 1018 -8 2 -4 -59
-262 -137 -572 l-142 -565 -686 -5 c-658 -5 -688 -6 -708 -24 -12 -11 -21 -26
-21 -34 0 -32 41 -151 61 -176 l20 -26 814 0 c447 0 820 -3 829 -6 22 -8 22
-80 0 -88 -9 -3 -482 -6 -1052 -6 -997 0 -1038 -1 -1068 -19 -33 -20 -64 -75
-64 -113 0 -31 33 -83 67 -105 26 -17 90 -18 1235 -21 l1208 -2 0 25 0 25
-1210 0 -1211 0 -24 25 c-34 33 -34 87 0 120 l24 25 1079 0 1079 0 0 90 0 90
-852 0 -851 0 -21 73 c-12 39 -25 80 -28 90 -7 17 27 17 701 17 l709 -1 152
603 c84 332 152 609 153 616 0 9 -215 12 -1044 12 -986 0 -1045 1 -1050 18
-49 163 -96 325 -96 328 0 2 -115 4 -255 4 -248 0 -255 -1 -255 -20z"/>
<path d="M0 2670 c0 -19 7 -20 188 -20 l187 0 235 -782 c129 -430 236 -787
238 -794 2 -9 -37 -13 -150 -16 -132 -3 -159 -7 -193 -25 -199 -105 -201 -373
-4 -472 60 -30 67 -31 186 -31 l124 0 -7 -22 c-15 -47 -6 -129 21 -183 49
-101 135 -150 249 -143 80 5 120 22 171 73 58 59 70 90 70 188 l0 87 498 0
498 0 -7 -22 c-15 -47 -6 -129 21 -183 49 -101 135 -150 249 -143 80 5 120 22
171 73 58 59 70 90 70 188 l0 87 93 0 c85 0 92 1 92 20 0 18 -7 20 -88 20
-121 0 -132 -8 -132 -104 0 -59 -5 -82 -28 -127 -63 -124 -227 -157 -336 -67
-54 44 -76 97 -76 186 0 122 44 112 -528 112 -425 0 -490 -2 -510 -16 -19 -13
-22 -24 -22 -88 0 -59 -5 -82 -28 -127 -63 -124 -227 -157 -336 -67 -54 44
-76 97 -76 186 0 105 -9 112 -147 112 -118 1 -163 12 -218 54 -107 82 -103
266 7 346 51 38 115 50 252 50 97 0 115 3 129 18 10 10 17 29 17 41 0 22 -423
1449 -456 1539 -26 70 -34 72 -241 72 -176 0 -183 -1 -183 -20z"/>
<path d="M685 2331 c-11 -5 -28 -18 -38 -29 -19 -20 -18 -24 29 -183 31 -102
57 -173 72 -191 l24 -28 157 0 c155 0 158 0 181 25 l24 25 -13 163 c-13 174
-23 205 -72 218 -34 10 -340 9 -364 0z m394 -196 c7 -88 15 -168 17 -177 5
-17 -7 -18 -160 -18 l-164 0 -11 33 c-26 81 -91 307 -91 314 0 4 89 8 199 8
l198 0 12 -160z"/>
<path d="M1265 2333 c-11 -3 -28 -12 -39 -22 -17 -15 -18 -27 -12 -141 14
-267 16 -270 176 -270 105 0 109 1 129 26 19 25 21 40 21 190 0 158 -1 164
-24 191 -23 27 -28 28 -128 30 -56 1 -112 -1 -123 -4z m235 -215 l0 -178 -115
0 c-113 0 -115 0 -115 23 0 25 -17 217 -25 287 l-5 45 130 0 130 0 0 -177z"/>
<path d="M1695 2333 c-52 -13 -55 -23 -55 -213 0 -172 1 -177 23 -198 21 -20
34 -22 129 -22 105 0 107 0 130 29 22 26 26 44 37 190 17 218 15 222 -163 220
-44 -1 -90 -4 -101 -6z m238 -50 c-1 -5 -7 -84 -14 -176 l-13 -167 -115 0
-116 0 2 177 c1 98 2 178 3 178 151 0 255 -5 253 -12z"/>
<path d="M2120 2330 c-14 -6 -31 -19 -38 -31 -18 -28 -44 -336 -31 -360 17
-33 46 -39 192 -39 183 0 175 -8 228 202 21 84 39 162 39 174 0 11 -9 29 -21
40 -19 17 -40 19 -183 21 -88 1 -172 -2 -186 -7z m355 -55 c-3 -11 -19 -74
-36 -140 -16 -66 -35 -137 -40 -157 l-10 -38 -154 0 c-85 0 -155 1 -155 3 0 1
7 76 15 167 8 91 15 170 15 175 0 6 69 10 186 10 180 0 185 -1 179 -20z"/>
<path d="M833 1800 c-48 -20 -48 -40 3 -212 30 -103 56 -171 72 -189 23 -28
26 -29 119 -29 102 0 129 8 143 44 10 28 -15 328 -31 357 -5 11 -21 24 -35 29
-31 12 -241 12 -271 0z m277 -37 c0 -5 7 -82 15 -173 8 -91 15 -168 15 -172 0
-5 -47 -8 -105 -8 l-104 0 -20 68 c-41 137 -79 258 -86 275 -7 16 4 17 139 17
80 0 146 -3 146 -7z"/>
<path d="M1293 1800 c-42 -17 -46 -40 -32 -212 11 -145 15 -163 37 -189 23
-28 27 -29 108 -29 77 0 87 2 109 25 25 24 25 27 25 192 -1 175 -3 188 -47
211 -25 14 -168 15 -200 2z m207 -210 l0 -180 -93 0 -94 0 -6 98 c-4 53 -10
134 -13 180 l-7 82 107 0 106 0 0 -180z"/>
<path d="M1690 1803 c-48 -18 -50 -26 -50 -213 0 -172 1 -177 23 -198 20 -19
35 -22 105 -22 70 0 84 3 107 23 24 21 26 31 39 187 16 182 13 200 -40 220
-27 11 -158 12 -184 3z m200 -40 c0 -5 -7 -82 -15 -173 -8 -91 -15 -168 -15
-172 0 -5 -42 -8 -92 -8 l-93 0 2 177 c1 98 2 179 3 181 1 6 210 1 210 -5z"/>
<path d="M2070 1797 c-39 -20 -47 -48 -60 -218 l-13 -160 23 -24 c22 -23 30
-25 126 -25 143 0 142 -1 194 210 45 179 44 201 -6 220 -37 15 -234 12 -264
-3z m276 -44 c-4 -9 -25 -90 -48 -180 l-40 -163 -109 0 c-97 0 -109 2 -109 18
0 32 22 317 26 330 2 9 40 12 145 12 129 0 141 -2 135 -17z"/>
<path d="M1002 550 c-46 -28 -74 -77 -68 -119 18 -117 152 -158 221 -67 49 64
27 154 -45 191 -39 20 -69 19 -108 -5z m111 -40 c33 -26 43 -70 23 -108 -29
-57 -107 -65 -146 -15 -29 37 -26 79 9 114 35 35 77 38 114 9z"/>
<path d="M2502 550 c-46 -28 -74 -77 -68 -119 18 -117 152 -157 222 -66 47 62
30 143 -39 185 -41 25 -73 25 -115 0z m111 -40 c33 -26 43 -70 23 -108 -29
-57 -107 -65 -146 -15 -29 37 -26 79 9 114 35 35 77 38 114 9z"/>
</g>
</svg>
