<?xml version="1.0" standalone="no"?>
<!DOCTYPE svg PUBLIC "-//W3C//DTD SVG 20010904//EN"
 "http://www.w3.org/TR/2001/REC-SVG-20010904/DTD/svg10.dtd">
<svg version="1.0" xmlns="http://www.w3.org/2000/svg"
 width="31.88" height="32" viewBox="0 0 375.000000 375.000000"
 preserveAspectRatio="xMidYMid meet">
<metadata>
Created by potrace 1.16, written by Peter Selinger 2001-2019
</metadata>
<g transform="translate(0.000000,375.000000) scale(0.100000,-0.100000)"
fill="#000000" stroke="none">
<path d="M1665 3729 c-128 -26 -237 -62 -335 -109 -330 -160 -611 -464 -731
-791 -68 -185 -89 -305 -89 -514 0 -239 36 -408 129 -610 17 -36 31 -68 31
-70 0 -1 32 -61 71 -131 139 -252 585 -899 904 -1314 123 -159 171 -190 295
-190 124 0 172 31 295 190 316 411 761 1056 904 1313 39 71 71 130 71 132 0 2
14 34 31 70 93 202 129 371 129 610 0 407 -132 726 -420 1016 -215 217 -473
354 -758 403 -131 23 -407 20 -527 -5z m520 -114 c408 -78 756 -346 936 -720
99 -207 133 -357 133 -580 0 -265 -61 -475 -221 -760 -197 -350 -898 -1339
-1006 -1419 -39 -29 -135 -29 -174 0 -109 80 -806 1064 -1006 1419 -160 285
-221 495 -221 760 0 243 44 417 166 650 77 149 254 341 408 444 190 127 380
196 620 225 65 8 284 -3 365 -19z"/>
<path d="M1665 3403 c4 -31 9 -61 11 -68 3 -7 -20 -21 -58 -35 -35 -12 -106
-44 -159 -71 l-95 -49 -193 0 -193 0 6 -42 c14 -91 29 -130 72 -177 l44 -48
-45 -79 c-43 -75 -95 -215 -110 -296 l-7 -38 -114 0 -114 0 0 -55 c0 -31 7
-72 15 -93 29 -68 112 -138 185 -155 22 -5 28 -17 48 -99 12 -51 42 -135 67
-185 l44 -93 -45 0 -45 0 7 -52 c12 -101 70 -193 149 -236 22 -12 57 -17 125
-17 91 -1 98 -2 161 -38 l67 -38 -72 -160 -71 -160 -42 6 -43 6 0 -45 0 -46
670 0 670 0 0 46 0 45 -42 -6 -43 -6 -71 160 -72 160 70 40 c66 38 72 40 132
34 161 -15 280 86 300 255 l7 52 -46 0 -45 0 39 78 c38 74 73 177 86 254 7 34
11 38 59 52 97 29 176 137 176 244 l0 52 -114 0 -114 0 -15 69 c-21 92 -69
213 -112 285 l-35 58 45 50 c45 50 57 81 70 171 l6 47 -192 0 -193 0 -95 49
c-53 27 -124 59 -159 71 -38 14 -61 28 -58 35 2 7 7 37 11 68 l7 57 -272 0
-272 0 7 -57z m435 -37 c0 -50 -102 -126 -170 -126 -49 0 -119 38 -147 80 -41
60 -41 60 147 60 136 0 170 -3 170 -14z m-332 -156 c20 -16 55 -36 77 -43 l40
-14 3 -159 c2 -87 0 -219 -3 -292 l-7 -133 -37 -19 -38 -19 -197 198 -197 197
26 24 c15 14 34 38 45 55 17 29 21 43 35 126 6 39 21 48 155 93 59 20 56 20
98 -14z m494 -12 c74 -28 78 -31 83 -66 14 -84 18 -98 35 -127 11 -17 30 -41
45 -55 l26 -24 -197 -197 -197 -198 -38 19 -37 19 -7 133 c-3 73 -5 205 -3
292 l3 159 41 14 c22 7 56 27 75 43 40 34 53 34 171 -12z m-849 -135 c-59 -97
-154 -129 -243 -83 -34 18 -90 81 -90 102 0 5 79 8 175 8 l175 0 -17 -27z
m1367 19 c0 -4 -11 -24 -25 -45 -75 -109 -234 -100 -303 18 l-21 35 174 0 c96
0 175 -3 175 -8z m-1237 -410 l198 -199 -18 -41 -18 -42 -237 0 -238 0 6 55 7
55 -107 0 c-96 0 -106 2 -106 18 0 34 59 193 101 272 l43 80 86 0 85 0 198
-198z m1186 118 c42 -79 101 -238 101 -272 0 -16 -10 -18 -106 -18 l-107 0 7
-55 6 -55 -238 0 -237 0 -18 42 -18 41 198 199 198 198 85 0 86 0 43 -80z
m-726 -330 c84 -50 88 -173 7 -230 -41 -29 -120 -31 -159 -3 -58 43 -76 138
-37 195 41 58 126 75 189 38z m-863 -58 c0 -20 -63 -91 -94 -106 -51 -24 -126
-21 -167 7 -32 21 -79 80 -79 98 0 5 77 9 170 9 94 0 170 -4 170 -8z m1920 -1
c0 -18 -47 -77 -79 -98 -46 -31 -130 -32 -178 -2 -31 19 -83 83 -83 101 0 5
77 8 170 8 94 0 170 -4 170 -9z m-1338 -145 l16 -43 -197 -197 -196 -196 -86
0 -85 0 -36 63 c-41 71 -108 244 -108 281 0 19 12 31 53 54 28 16 63 42 76 56
l24 26 262 0 261 0 16 -44z m979 18 c13 -14 48 -40 78 -57 52 -29 53 -31 48
-67 -6 -48 -71 -211 -111 -277 l-31 -53 -85 0 -85 0 -196 196 -197 197 16 43
16 44 261 0 262 0 24 -26z m-916 -171 c-12 -27 -31 -68 -42 -93 -159 -355
-217 -486 -219 -489 -2 -2 -24 9 -49 23 -39 23 -44 30 -35 46 6 10 15 22 21
26 41 25 69 199 32 206 -11 2 33 53 144 166 88 89 162 162 165 162 4 0 -4 -21
-17 -47z m468 -148 c84 -86 123 -131 113 -133 -36 -8 -7 -181 33 -206 6 -4 15
-16 21 -26 9 -16 4 -23 -35 -46 -25 -14 -47 -25 -49 -23 -2 3 -60 134 -219
489 -11 25 -30 67 -43 95 l-24 49 37 -34 c21 -19 96 -93 166 -165z m-3 -465
c0 -6 -44 -30 -55 -30 -2 0 -1 16 2 35 l6 35 -117 0 -116 0 0 158 c0 86 3 214
7 284 l6 128 134 -302 c73 -166 133 -304 133 -308z m-361 228 l1 -188 -116 0
-117 0 6 -35 c3 -19 4 -35 2 -35 -11 0 -55 24 -55 30 0 6 112 261 243 554 l22
50 6 -95 c4 -52 7 -178 8 -281z m-476 -15 c-45 -74 -92 -103 -163 -103 -72 0
-147 49 -165 108 l-6 22 176 0 175 0 -17 -27z m1362 5 c-18 -59 -93 -108 -165
-108 -71 0 -118 29 -163 103 l-17 27 175 0 176 0 -6 -22z m-678 -275 c3 -7
-14 -32 -37 -56 -63 -70 -136 -81 -220 -35 -40 21 -85 81 -75 98 10 16 327 9
332 -7z m-440 -60 c24 -8 54 -31 72 -53 45 -57 120 -90 200 -90 84 0 139 25
200 88 34 36 61 52 104 66 32 10 60 17 62 15 13 -14 115 -262 110 -267 -9 -9
-941 -9 -950 0 -4 3 20 65 52 138 65 146 55 139 150 103z"/>
<path d="M1885 2451 c-85 -37 -93 -158 -15 -204 52 -31 119 -17 157 33 31 41
19 114 -25 153 -23 21 -87 31 -117 18z"/>
</g>
</svg>
