<?xml version="1.0" standalone="no"?>
<!DOCTYPE svg PUBLIC "-//W3C//DTD SVG 20010904//EN"
 "http://www.w3.org/TR/2001/REC-SVG-20010904/DTD/svg10.dtd">
<svg version="1.0" xmlns="http://www.w3.org/2000/svg"
 width="31.88" height="32" viewBox="0 0 375.000000 384.000000"
 preserveAspectRatio="xMidYMid meet">
<metadata>
Created by potrace 1.16, written by Peter Selinger 2001-2019
</metadata>
<g transform="translate(0.000000,384.000000) scale(0.100000,-0.100000)"
fill="#000000" stroke="none">
<path d="M1680 3829 c-360 -72 -593 -193 -831 -429 -219 -217 -350 -461 -410
-763 -27 -138 -27 -392 1 -533 57 -294 193 -558 551 -1069 239 -341 434 -604
615 -831 96 -120 120 -145 172 -172 53 -28 69 -32 140 -32 133 0 176 28 320
208 180 227 254 327 534 721 429 601 567 861 628 1175 28 140 28 391 1 531
-59 302 -190 546 -410 765 -235 234 -492 368 -813 425 -93 16 -423 19 -498 4z
m395 -114 c205 -16 453 -107 645 -239 41 -28 122 -98 180 -156 l105 -104 -106
-6 c-116 -6 -148 -19 -173 -68 -13 -26 -53 -150 -76 -239 l-11 -43 -288 0
-288 0 -23 -25 c-26 -27 -26 2 5 -315 31 -313 45 -450 70 -695 14 -137 32
-315 40 -395 17 -160 20 -177 43 -202 14 -16 39 -18 252 -18 214 0 240 2 260
18 24 19 26 33 65 407 8 83 22 211 30 285 8 74 31 305 52 512 l37 378 -24 25
c-21 23 -31 25 -102 25 -56 0 -78 4 -77 13 0 6 19 68 42 137 34 101 47 127 67
137 15 8 68 13 136 13 l112 0 46 -75 c148 -237 213 -480 202 -760 -14 -400
-135 -647 -708 -1446 -320 -447 -536 -721 -586 -745 -44 -21 -119 -21 -163 0
-35 16 -115 111 -308 365 -92 119 -394 539 -480 664 l-32 47 567 0 c514 0 566
1 560 16 -3 9 -11 58 -18 110 -7 61 -15 94 -23 94 -7 0 -29 -7 -48 -15 -43
-18 -121 -19 -168 -4 -19 7 -71 38 -116 70 -99 72 -117 79 -199 79 -59 0 -79
-6 -217 -69 -185 -84 -245 -99 -320 -77 -59 17 -103 57 -137 124 l-21 44 -50
-4 -50 -3 -73 146 c-117 233 -154 372 -163 604 -8 240 31 425 137 640 211 427
643 717 1123 754 56 5 122 7 147 5 25 -2 81 -6 125 -9z m720 -904 c39 -6 40
-7 43 -51 2 -25 -11 -180 -28 -345 -17 -165 -37 -363 -45 -440 -58 -572 -73
-697 -86 -710 -10 -10 -442 -15 -453 -4 -6 5 -25 162 -51 414 -8 83 -20 193
-25 245 -44 418 -72 701 -77 788 l-6 102 44 1 c454 15 592 15 684 0z m-1914
-1331 c61 -92 147 -130 260 -117 51 6 96 23 269 103 167 76 208 73 355 -31
100 -71 116 -76 220 -76 l92 1 7 -38 c13 -80 72 -72 -544 -72 l-551 0 -79 122
c-73 113 -94 158 -72 158 5 0 24 -23 43 -50z"/>
<path d="M1420 2425 c-177 -36 -368 -139 -478 -259 -89 -98 -152 -238 -152
-337 l0 -51 643 7 c353 4 644 9 646 11 3 3 -10 138 -44 443 -14 130 -14 131
-111 161 -131 40 -369 52 -504 25z m473 -63 c38 -11 73 -24 78 -29 5 -5 14
-49 19 -97 9 -76 8 -91 -7 -116 -16 -28 -16 -30 5 -52 16 -18 24 -44 32 -113
5 -50 10 -98 10 -108 0 -17 -26 -18 -594 -15 -327 2 -597 6 -600 9 -10 10 24
121 57 182 40 77 154 194 232 239 75 43 173 83 268 109 100 27 396 22 500 -9z"/>
<path d="M820 1737 c0 -23 2 -24 122 -30 66 -4 352 -7 635 -7 l514 0 -3 28 -3
27 -632 3 -633 2 0 -23z"/>
<path d="M865 1681 c-70 -6 -70 -6 -70 -36 l0 -30 653 -5 653 -5 -3 40 -3 40
-580 1 c-319 0 -611 -2 -650 -5z"/>
</g>
</svg>
