<?xml version="1.0" standalone="no"?>
<!DOCTYPE svg PUBLIC "-//W3C//DTD SVG 20010904//EN"
 "http://www.w3.org/TR/2001/REC-SVG-20010904/DTD/svg10.dtd">
<svg version="1.0" xmlns="http://www.w3.org/2000/svg"
  width="31.88" height="32" viewBox="0 0 375.000000 375.000000"
 preserveAspectRatio="xMidYMid meet">
<metadata>
Created by potrace 1.16, written by Peter Selinger 2001-2019
</metadata>
<g transform="translate(0.000000,375.000000) scale(0.100000,-0.100000)"
fill="#000000" stroke="none">
<path d="M1705 3734 c-545 -92 -1008 -469 -1183 -964 -52 -150 -72 -273 -72
-455 0 -397 110 -651 539 -1245 238 -331 490 -659 688 -897 78 -94 102 -116
154 -142 53 -27 73 -31 139 -31 135 0 183 28 308 179 303 364 766 988 947
1275 67 108 163 299 198 396 57 156 77 278 77 461 0 180 -21 313 -72 457 -176
499 -630 869 -1186 967 -109 19 -423 19 -537 -1z m535 -119 c421 -73 799 -344
992 -712 93 -175 136 -338 145 -543 6 -153 -15 -302 -63 -446 -37 -109 -131
-295 -228 -446 l-81 -128 -66 0 c-87 0 -100 -10 -108 -91 -8 -83 -35 -128 -91
-157 -78 -40 -155 -19 -207 58 -18 25 -23 47 -23 95 0 46 -4 66 -17 76 -13 11
-92 15 -399 17 -375 3 -384 2 -404 -18 -15 -15 -20 -33 -20 -71 0 -88 -41
-147 -120 -170 -56 -17 -106 -4 -152 40 -38 35 -41 41 -48 115 -4 43 -13 83
-19 89 -6 6 -56 15 -110 18 -55 4 -111 13 -127 22 -69 36 -104 112 -85 184 25
93 73 120 229 129 157 10 155 7 108 171 -240 822 -324 1093 -342 1113 -11 11
-46 16 -130 20 l-116 5 22 28 c21 27 23 27 138 27 64 0 122 -4 128 -8 5 -4 25
-52 42 -108 17 -56 41 -113 53 -128 l20 -26 687 0 c378 0 730 -3 783 -6 l96
-7 -8 -31 c-5 -17 -52 -209 -105 -426 -54 -217 -98 -397 -100 -398 -1 -2 -241
-7 -532 -11 -439 -5 -532 -9 -547 -21 -22 -18 -16 -73 17 -138 l23 -47 580 -6
c789 -8 705 -5 705 -32 l0 -24 -187 -6 c-104 -4 -466 -7 -805 -7 -376 0 -627
-4 -642 -10 -30 -11 -66 -65 -66 -98 0 -12 15 -39 34 -60 l34 -37 941 -3 941
-3 0 26 0 25 -932 0 c-853 0 -933 1 -950 17 -22 20 -23 61 -1 85 15 17 55 18
850 18 l833 0 0 75 0 75 -657 0 -658 0 -17 57 c-9 32 -14 60 -12 63 3 3 248 6
544 8 495 3 539 5 544 20 25 87 226 907 226 922 0 20 -6 20 -733 20 -404 0
-768 3 -809 6 l-74 7 -36 126 -35 126 -132 5 -132 5 58 67 c236 272 564 436
963 482 69 8 297 -3 390 -19z m-1202 -888 c35 -116 70 -232 77 -257 15 -51
186 -621 208 -692 8 -26 12 -49 9 -52 -3 -4 -50 -6 -104 -6 -109 0 -154 -13
-201 -58 -43 -41 -67 -95 -67 -151 0 -63 13 -97 53 -139 55 -58 94 -72 199
-72 l93 0 -3 -46 c-5 -53 18 -121 54 -164 55 -65 196 -80 268 -29 66 47 81 75
85 161 l3 78 377 0 376 0 -3 -46 c-8 -89 46 -180 123 -210 60 -22 154 -16 195
14 16 12 31 22 34 22 14 0 -478 -644 -631 -826 -46 -55 -99 -109 -116 -120
-44 -26 -140 -26 -184 0 -89 54 -774 950 -1022 1339 -217 338 -300 594 -288
887 8 190 41 325 119 493 l41 87 121 0 121 0 63 -213z"/>
<path d="M1195 2687 l-27 -23 17 -59 c30 -106 67 -210 83 -227 13 -15 34 -18
142 -18 148 0 160 6 160 81 0 50 -17 203 -25 229 -10 31 -52 40 -190 40 -125
0 -136 -2 -160 -23z m319 -104 c4 -43 10 -102 13 -130 l6 -53 -122 0 c-66 0
-121 2 -121 3 0 2 -16 57 -35 123 -19 65 -35 122 -35 126 0 5 65 8 144 8 l143
0 7 -77z"/>
<path d="M1642 2694 c-19 -13 -22 -24 -22 -87 1 -40 5 -103 10 -142 12 -94 26
-105 135 -105 118 0 120 3 120 177 0 130 -1 136 -24 154 -31 25 -184 28 -219
3z m198 -164 l0 -130 -79 0 -79 0 -6 63 c-3 34 -8 92 -12 130 l-6 67 91 0 91
0 0 -130z"/>
<path d="M1974 2696 c-17 -13 -19 -29 -22 -154 -4 -179 -2 -182 121 -182 115
0 124 9 138 156 11 124 6 169 -21 184 -29 16 -193 13 -216 -4z m203 -73 c-4
-21 -9 -80 -13 -130 l-7 -93 -83 0 -84 0 0 130 0 130 96 0 97 0 -6 -37z"/>
<path d="M2311 2693 c-25 -22 -41 -111 -41 -231 0 -79 1 -83 26 -92 14 -6 72
-10 129 -10 140 0 144 4 185 168 17 68 28 132 25 141 -10 32 -52 41 -179 41
-103 0 -127 -3 -145 -17z m263 -125 c-13 -51 -28 -110 -34 -130 l-11 -38 -112
0 -112 0 8 88 c4 48 10 106 13 130 l5 42 134 0 134 0 -25 -92z"/>
<path d="M1323 2290 c-30 -12 -29 -38 2 -149 32 -114 59 -177 80 -185 27 -10
154 -7 176 4 16 9 19 22 19 88 -1 42 -5 108 -10 147 -12 97 -24 105 -149 104
-53 0 -106 -4 -118 -9z m218 -64 c4 -15 9 -74 11 -130 l3 -101 -70 -3 -70 -3
-38 128 c-21 71 -37 132 -37 136 0 4 44 6 97 5 l97 -3 7 -29z"/>
<path d="M1679 2290 c-26 -15 -30 -49 -19 -176 12 -150 22 -164 120 -164 100
0 105 8 105 177 0 130 -1 136 -24 154 -18 15 -39 19 -95 19 -39 0 -78 -5 -87
-10z m161 -165 l0 -135 -64 0 -64 0 -6 108 c-4 59 -9 119 -11 135 l-4 27 74 0
75 0 0 -135z"/>
<path d="M1974 2286 c-17 -13 -19 -29 -22 -154 -3 -132 -2 -142 18 -162 18
-18 31 -20 92 -18 100 4 106 14 114 184 7 130 7 131 -17 147 -30 22 -156 24
-185 3z m157 -146 c-1 -63 -7 -123 -12 -132 -8 -14 -23 -18 -69 -18 l-60 0 0
135 0 136 73 -3 72 -3 -4 -115z"/>
<path d="M2283 2285 c-29 -20 -40 -65 -48 -193 -9 -136 -5 -142 112 -142 111
0 120 9 156 152 35 139 35 171 2 186 -39 18 -196 15 -222 -3z m209 -30 c3 -3
-5 -45 -18 -93 -13 -48 -28 -106 -34 -129 l-11 -43 -64 0 c-96 0 -91 -8 -81
133 5 70 13 125 20 129 13 9 180 11 188 3z"/>
<path d="M1443 1307 c-39 -37 -47 -76 -24 -120 16 -30 62 -57 96 -57 42 0 95
59 95 105 0 29 -8 45 -34 71 -45 45 -84 46 -133 1z"/>
<path d="M2605 1309 c-30 -26 -35 -37 -35 -73 1 -99 111 -140 174 -65 38 45
35 92 -8 135 -44 44 -82 45 -131 3z"/>
</g>
</svg>
